<?xml version="1.0"?>
<!DOCTYPE svg PUBLIC "-//W3C//DTD SVG 1.1//EN"
  "http://www.w3.org/Graphics/SVG/1.1/DTD/svg11.dtd">

<svg
  xmlns="http://www.w3.org/2000/svg"
  version="1.1"
  width="192"
  height="192"
  viewBox="0 0 192 192">
  
<path d="M37,36 L37,96" stroke="#FF8000" stroke-width="2px" fill="none" transform="rotate(315 96 96)"/>
<polygon  fill="#0080FF" points="29,29 36,35 36,156  29,163" />
<path d="M37,36 L37,96" stroke="#FF8000" stroke-width="2px" fill="none" />

<polygon  fill="#0080FF" points="29,29 36,35 36,156  29,163" transform="rotate(45 96 96)"/>
<path d="M37,36 L37,132" stroke="#FF8000" stroke-width="2px" fill="none" transform="rotate(45 96 96)"/>

<polygon  fill="#0080FF" points="29,29 36,35 36,156  29,163" transform="rotate(90 96 96)"/>
<path d="M37,36 L37,132" stroke="#FF8000" stroke-width="2px" fill="none" transform="rotate(90 96 96)"/>

<polygon  fill="#0080FF" points="29,29 36,35 36,156  29,163" transform="rotate(135 96 96)"/>
<path d="M37,36 L37,132" stroke="#FF8000" stroke-width="2px" fill="none" transform="rotate(135 96 96)"/>

<polygon  fill="#0080FF" points="29,29 36,35 36,156  29,163" transform="rotate(180 96 96)"/>
<path d="M37,36 L37,132" stroke="#FF8000" stroke-width="2px" fill="none" transform="rotate(180 96 96)"/>

<polygon  fill="#0080FF" points="29,29 36,35 36,156  29,163" transform="rotate(225 96 96)"/>
<path d="M37,36 L37,132" stroke="#FF8000" stroke-width="2px" fill="none" transform="rotate(225 96 96)"/>

<polygon  fill="#0080FF" points="29,29 36,35 36,156  29,163" transform="rotate(270 96 96)"/>
<path d="M37,36 L37,132" stroke="#FF8000" stroke-width="2px" fill="none" transform="rotate(270 96 96)"/>

<polygon  fill="#0080FF" points="29,29 36,35 36,156  29,163" transform="rotate(315 96 96)"/>
<path d="M37,96 L37,132" stroke="#FF8000" stroke-width="2px" fill="none" transform="rotate(315 96 96)"/>
<path d="M37,96 L37,132" stroke="#FF8000" stroke-width="2px" fill="none" />

</svg>
