    <svg
  xmlns="http://www.w3.org/2000/svg"
  width="192"
  height="192"
  viewBox="0 0 192 192">

  <!-- linker schwarzer Halbkreis -->
  <path d="M96,0 A96,96 0 0,0 96,192 Z"
    fill="black"/>

  <g fill="none" stroke="#000000" stroke-width="4">

    <!-- r = 8 -->
    <path d="M104,96 A8,8 0 0 1 101.66,101.66" transform="rotate(45 96 96)"/>

    <!-- r = 16 -->
    <path d="M112,96 A16,16 0 0 1 107.31,107.31" transform="rotate(45 96 96)"/>

    <!-- r = 24 -->
    <path d="M120,96 A24,24 0 0 1 112.97,112.97" transform="rotate(45 96 96)"/>

    <!-- r = 32 -->
    <path d="M128,96 A32,32 0 0 1 118.63,118.63"/>

    <!-- r = 40 -->
    <path d="M136,96 A40,40 0 0 1 124.28,124.28" />

    <!-- r = 48 -->
    <path d="M144,96 A48,48 0 0 1 129.94,129.94" />

    <!-- r = 56 -->
    <path d="M152,96 A56,56 0 0 1 135.60,135.60" transform="rotate(-45 96 96)"/>

    <!-- r = 64 -->
    <path d="M160,96 A64,64 0 0 1 141.25,141.25" transform="rotate(-45 96 96)"/>

    <!-- r = 72 -->
    <path d="M168,96 A72,72 0 0 1 146.91,146.91" transform="rotate(-45 96 96)"/>

    <!-- r = 80 -->
    <path d="M176,96 A80,80 0 0 1 152.57,152.57" transform="rotate(-90 96 96)"/>

    <!-- r = 88 -->
    <path d="M184,96 A88,88 0 0 1 158.22,158.22" transform="rotate(-90 96 96)"/>

    <!-- r = 96 -->
    <path d="M192,96 A96,96 0 0 1 163.88,163.88" transform="rotate(-90 96 96)"/>

  </g>
</svg>
 