<?xml version="1.0"?>
<!DOCTYPE svg PUBLIC "-//W3C//DTD SVG 1.1//EN"
  "http://www.w3.org/Graphics/SVG/1.1/DTD/svg11.dtd">

<svg
  xmlns="http://www.w3.org/2000/svg"
  version="1.1"
  width="192"
  height="192"
  viewBox="0 0 192 192">
  
<path d="M56,25 L56,96" stroke="#FF8000" stroke-width="2px" fill="none" transform="rotate(240 96 96)"/>
<path d="M56,25 L56,96" stroke="#FF8000" stroke-width="2px" fill="none" transform="rotate(300 96 96)"/>
<polygon  fill="#0080FF" points="48,13 55,20 55,172 48,179" />
<path d="M56,25 L56,96" stroke="#FF8000" stroke-width="2px" fill="none" />

<polygon  fill="#0080FF" points="48,13 55,20 55,172 48,179" transform="rotate(60 96 96)"/>
<path d="M56,25 L56,129" stroke="#FF8000" stroke-width="2px" fill="none" transform="rotate(60 96 96)"/>

<polygon  fill="#0080FF" points="48,13 55,20 55,172 48,179" transform="rotate(120 96 96)"/>
<path d="M56,25 L56,129" stroke="#FF8000" stroke-width="2px" fill="none" transform="rotate(120 96 96)"/>

<polygon  fill="#0080FF" points="48,13 55,20 55,172 48,179" transform="rotate(180 96 96)"/>
<path d="M56,25 L56,129" stroke="#FF8000" stroke-width="2px" fill="none" transform="rotate(180 96 96)"/>

<polygon  fill="#0080FF" points="48,13 55,20 55,172 48,179" transform="rotate(240 96 96)"/>
<path d="M56,40 L56,129" stroke="#FF8000" stroke-width="2px" fill="none" transform="rotate(240 96 96)"/>

<polygon  fill="#0080FF" points="48,13 55,20 55,172 48,179" transform="rotate(300 96 96)"/>
<path d="M56,96 L56,129" stroke="#FF8000" stroke-width="2px" fill="none" transform="rotate(300 96 96)"/>
<path d="M56,96 L56,129" stroke="#FF8000" stroke-width="2px" fill="none" />

</svg>
