<?xml version="1.0" encoding="UTF-8"?>
<!DOCTYPE svg PUBLIC "-//W3C//DTD SVG 1.1//EN" "http://www.w3.org/Graphics/SVG/1.1/DTD/svg11.dtd">
<svg version="1.2" width="80mm" height="50mm" viewBox="0 0 8000 5000" preserveAspectRatio="xMidYMid" fill-rule="evenodd" stroke-width="28.222" stroke-linejoin="round" xmlns="http://www.w3.org/2000/svg" xmlns:ooo="http://xml.openoffice.org/svg/export" xmlns:xlink="http://www.w3.org/1999/xlink" xmlns:presentation="http://sun.com/xmlns/staroffice/presentation" xmlns:smil="http://www.w3.org/2001/SMIL20/" xmlns:anim="urn:oasis:names:tc:opendocument:xmlns:animation:1.0" xmlns:svg="urn:oasis:names:tc:opendocument:xmlns:svg-compatible:1.0" xml:space="preserve">
<rect x="0" y="0" width="8000" height="5000" fill="transparent"/>
 <defs class="ClipPathGroup">
  <clipPath id="presentation_clip_path" clipPathUnits="userSpaceOnUse">
   <rect x="0" y="0" width="8000" height="5000"/>
  </clipPath>
  <clipPath id="presentation_clip_path_shrink" clipPathUnits="userSpaceOnUse">
   <rect x="8" y="5" width="7984" height="4990"/>
  </clipPath>
 </defs>
 <defs class="TextShapeIndex">
  <g ooo:slide="id1" ooo:id-list="id3 id4 id5 id6 id7 id8 id9 id10 id11 id12"/>
 </defs>
 <defs class="EmbeddedBulletChars">
  <g id="bullet-char-template-57356" transform="scale(0.00048828125,-0.00048828125)">
   <path d="M 580,1141 L 1163,571 580,0 -4,571 580,1141 Z"/>
  </g>
  <g id="bullet-char-template-57354" transform="scale(0.00048828125,-0.00048828125)">
   <path d="M 8,1128 L 1137,1128 1137,0 8,0 8,1128 Z"/>
  </g>
  <g id="bullet-char-template-10146" transform="scale(0.00048828125,-0.00048828125)">
   <path d="M 174,0 L 602,739 174,1481 1456,739 174,0 Z M 1358,739 L 309,1346 659,739 1358,739 Z"/>
  </g>
  <g id="bullet-char-template-10132" transform="scale(0.00048828125,-0.00048828125)">
   <path d="M 2015,739 L 1276,0 717,0 1260,543 174,543 174,936 1260,936 717,1481 1274,1481 2015,739 Z"/>
  </g>
  <g id="bullet-char-template-10007" transform="scale(0.00048828125,-0.00048828125)">
   <path d="M 0,-2 C -7,14 -16,27 -25,37 L 356,567 C 262,823 215,952 215,954 215,979 228,992 255,992 264,992 276,990 289,987 310,991 331,999 354,1012 L 381,999 492,748 772,1049 836,1024 860,1049 C 881,1039 901,1025 922,1006 886,937 835,863 770,784 769,783 710,716 594,584 L 774,223 C 774,196 753,168 711,139 L 727,119 C 717,90 699,76 672,76 641,76 570,178 457,381 L 164,-76 C 142,-110 111,-127 72,-127 30,-127 9,-110 8,-76 1,-67 -2,-52 -2,-32 -2,-23 -1,-13 0,-2 Z"/>
  </g>
  <g id="bullet-char-template-10004" transform="scale(0.00048828125,-0.00048828125)">
   <path d="M 285,-33 C 182,-33 111,30 74,156 52,228 41,333 41,471 41,549 55,616 82,672 116,743 169,778 240,778 293,778 328,747 346,684 L 369,508 C 377,444 397,411 428,410 L 1163,1116 C 1174,1127 1196,1133 1229,1133 1271,1133 1292,1118 1292,1087 L 1292,965 C 1292,929 1282,901 1262,881 L 442,47 C 390,-6 338,-33 285,-33 Z"/>
  </g>
  <g id="bullet-char-template-9679" transform="scale(0.00048828125,-0.00048828125)">
   <path d="M 813,0 C 632,0 489,54 383,161 276,268 223,411 223,592 223,773 276,916 383,1023 489,1130 632,1184 813,1184 992,1184 1136,1130 1245,1023 1353,916 1407,772 1407,592 1407,412 1353,268 1245,161 1136,54 992,0 813,0 Z"/>
  </g>
  <g id="bullet-char-template-8226" transform="scale(0.00048828125,-0.00048828125)">
   <path d="M 346,457 C 273,457 209,483 155,535 101,586 74,649 74,723 74,796 101,859 155,911 209,963 273,989 346,989 419,989 480,963 531,910 582,859 608,796 608,723 608,648 583,586 532,535 482,483 420,457 346,457 Z"/>
  </g>
  <g id="bullet-char-template-8211" transform="scale(0.00048828125,-0.00048828125)">
   <path d="M -4,459 L 1135,459 1135,606 -4,606 -4,459 Z"/>
  </g>
  <g id="bullet-char-template-61548" transform="scale(0.00048828125,-0.00048828125)">
   <path d="M 173,740 C 173,903 231,1043 346,1159 462,1274 601,1332 765,1332 928,1332 1067,1274 1183,1159 1299,1043 1357,903 1357,740 1357,577 1299,437 1183,322 1067,206 928,148 765,148 601,148 462,206 346,322 231,437 173,577 173,740 Z"/>
  </g>
 </defs>
 <g>
  <g id="id2" class="Master_Slide">
   <g id="bg-id2" class="Background"/>
   <g id="bo-id2" class="BackgroundObjects"/>
  </g>
 </g>
 <g class="SlideGroup">
  <g>
   <g id="container-id1">
    <g id="id1" class="Slide" clip-path="url(#presentation_clip_path)">
     <g class="Page">
      <g class="com.sun.star.drawing.OpenBezierShape">
       <g id="id3">
        <rect class="BoundingBox" stroke="none" fill="none" x="100" y="50" width="1776" height="3782"/>
        <path fill="none" stroke="rgb(255,255,255)" stroke-width="200" stroke-linejoin="round" d="M 200,150 C 1990,2078 1766,3731 1766,3731 "/>
       </g>
      </g>
      <g class="com.sun.star.drawing.OpenBezierShape">
       <g id="id4">
        <rect class="BoundingBox" stroke="none" fill="none" x="99" y="50" width="503" height="4902"/>
        <path fill="none" stroke="rgb(255,255,255)" stroke-width="200" stroke-linejoin="round" d="M 200,150 C 875,1940 200,4850 200,4850 "/>
       </g>
      </g>
      <g class="com.sun.star.drawing.OpenBezierShape">
       <g id="id5">
        <rect class="BoundingBox" stroke="none" fill="none" x="334" y="2093" width="4692" height="668"/>
        <path fill="none" stroke="rgb(255,255,255)" stroke-width="200" stroke-linejoin="round" d="M 435,2659 C 2162,1764 4925,2436 4925,2436 "/>
       </g>
      </g>
      <g class="com.sun.star.drawing.OpenBezierShape">
       <g id="id6">
        <rect class="BoundingBox" stroke="none" fill="none" x="1900" y="1392" width="483" height="2440"/>
        <path fill="none" stroke="rgb(255,255,255)" stroke-width="200" stroke-linejoin="round" d="M 2000,1493 C 2450,2836 2225,3731 2225,3731 "/>
       </g>
      </g>
      <g class="com.sun.star.drawing.OpenBezierShape">
       <g id="id7">
        <rect class="BoundingBox" stroke="none" fill="none" x="2034" y="1392" width="967" height="740"/>
        <path fill="none" stroke="rgb(255,255,255)" stroke-width="200" stroke-linejoin="round" d="M 2135,2030 C 2517,1493 2900,1493 2900,1493 "/>
       </g>
      </g>
      <g class="com.sun.star.drawing.OpenBezierShape">
       <g id="id8">
        <rect class="BoundingBox" stroke="none" fill="none" x="3025" y="1169" width="483" height="2663"/>
        <path fill="none" stroke="rgb(255,255,255)" stroke-width="200" stroke-linejoin="round" d="M 3125,1269 C 3575,2612 3350,3731 3350,3731 "/>
       </g>
      </g>
      <g class="com.sun.star.drawing.OpenBezierShape">
       <g id="id9">
        <rect class="BoundingBox" stroke="none" fill="none" x="3160" y="1336" width="1326" height="482"/>
        <path fill="none" stroke="rgb(255,255,255)" stroke-width="200" stroke-linejoin="round" d="M 3260,1717 C 3710,1269 4385,1493 4385,1493 "/>
       </g>
      </g>
      <g class="com.sun.star.drawing.OpenBezierShape">
       <g id="id10">
        <rect class="BoundingBox" stroke="none" fill="none" x="4240" y="1372" width="483" height="2440"/>
        <path fill="none" stroke="rgb(255,255,255)" stroke-width="200" stroke-linejoin="round" d="M 4340,1472 C 4790,2815 4565,3710 4565,3710 "/>
       </g>
      </g>
      <g class="com.sun.star.drawing.CustomShape">
       <g id="id11">
        <rect class="BoundingBox" stroke="none" fill="none" x="4824" y="945" width="3127" height="2888"/>
        <path fill="none" stroke="rgb(255,255,255)" stroke-width="200" stroke-linejoin="round" d="M 7850,2389 C 7850,2624 7782,2856 7654,3060 7526,3264 7341,3434 7119,3552 6896,3670 6644,3732 6387,3732 6130,3732 5878,3670 5656,3552 5433,3434 5248,3264 5120,3060 4992,2856 4924,2624 4924,2389 4924,2153 4992,1921 5120,1717 5248,1513 5433,1343 5655,1225 5878,1107 6130,1045 6387,1045 6644,1045 6896,1107 7118,1225 7341,1343 7526,1513 7654,1717 7782,1921 7850,2153 7850,2388 L 7850,2389 Z "/>
       </g>
      </g>
      <g class="com.sun.star.drawing.CustomShape">
       <g id="id12">
        <rect class="BoundingBox" stroke="none" fill="none" x="5275" y="1617" width="1102" height="874"/>
        <path fill="none" stroke="rgb(255,255,255)" stroke-width="200" stroke-linejoin="round" d="M 6276,2054 C 6276,2113 6255,2171 6216,2222 6176,2273 6119,2315 6051,2345 5982,2374 5905,2390 5826,2390 5746,2390 5669,2374 5600,2345 5532,2315 5475,2273 5435,2222 5396,2171 5375,2113 5375,2054 5375,1994 5396,1936 5435,1885 5475,1834 5532,1792 5600,1762 5669,1733 5746,1717 5826,1717 5905,1717 5982,1733 6051,1762 6119,1792 6176,1834 6216,1885 6255,1936 6276,1994 6276,2053 L 6276,2054 Z "/>
       </g>
      </g>
     </g>
    </g>
   </g>
  </g>
 </g>
</svg>